<?xml version="1.0" standalone="no"?>
<!DOCTYPE svg PUBLIC "-//W3C//DTD SVG 20010904//EN"
 "http://www.w3.org/TR/2001/REC-SVG-20010904/DTD/svg10.dtd">
<svg version="1.0" xmlns="http://www.w3.org/2000/svg"
 width="64.000000pt" height="64.000000pt" viewBox="0 0 64.000000 64.000000"
 preserveAspectRatio="xMidYMid meet">
<metadata>
Created by potrace 1.10, written by Peter Selinger 2001-2011
</metadata>
<g transform="translate(0.000000,64.000000) scale(0.100000,-0.100000)"
fill="#000000" stroke="none">
<path d="M288 629 c-18 -10 -25 -59 -11 -73 4 -4 8 -23 10 -42 2 -31 0 -34
-26 -34 -15 0 -35 -8 -44 -18 -20 -22 -22 -73 -5 -90 17 -17 0 -28 -22 -14
-58 36 -128 -20 -104 -82 11 -28 24 -17 18 14 -8 36 9 60 42 60 27 0 107 -67
98 -82 -4 -5 -23 7 -44 27 -42 41 -73 44 -78 7 -4 -27 22 -40 43 -22 9 7 18
10 22 7 10 -10 -18 -37 -38 -37 -11 0 -19 -4 -19 -10 0 -15 33 -12 58 6 25 17
43 11 24 -8 -33 -33 12 -117 58 -105 20 5 28 -12 13 -27 -4 -4 -8 -21 -9 -39
-1 -18 -3 -39 -5 -47 -3 -12 7 -15 46 -15 l50 0 -3 50 c-2 28 -8 55 -14 62 -7
8 -1 12 18 15 15 2 29 8 31 14 2 6 -7 9 -24 7 -22 -4 -36 3 -62 31 -44 45 -32
61 12 18 18 -18 40 -32 49 -32 19 0 30 23 22 45 -4 8 -2 15 4 15 13 0 23 -27
16 -45 -4 -8 -1 -15 5 -15 18 0 23 24 11 55 -13 35 -7 41 22 21 32 -22 55 -20
83 9 31 30 32 65 2 93 -25 24 -57 28 -89 11 -26 -14 -33 -6 -18 21 23 44 -10
100 -59 100 -26 0 -28 3 -26 36 1 19 7 40 14 47 13 13 15 47 2 47 -5 0 -11
-10 -13 -22 -2 -17 -10 -23 -28 -23 -20 0 -25 5 -25 25 0 18 6 26 23 28 12 2
22 8 22 13 0 12 -30 11 -52 -2z m42 -104 c0 -8 -7 -15 -15 -15 -16 0 -20 12
-8 23 11 12 23 8 23 -8z m0 -50 c0 -8 -4 -15 -10 -15 -5 0 -10 7 -10 15 0 8 5
15 10 15 6 0 10 -7 10 -15z m-6 -51 c49 -48 38 -57 -14 -10 -22 20 -42 36 -44
36 -3 0 -12 -7 -20 -16 -13 -12 -14 -20 -5 -36 9 -16 8 -19 -3 -16 -18 6 -23
46 -8 64 21 24 55 16 94 -22z m90 3 c9 -24 6 -31 -29 -67 -21 -21 -42 -37 -48
-33 -5 3 8 22 28 43 41 42 42 73 3 70 -34 -3 -40 -1 -33 11 4 5 21 9 38 7 24
-2 34 -10 41 -31z m-140 -18 c-3 -5 -10 -7 -15 -3 -5 3 -7 10 -3 15 3 5 10 7
15 3 5 -3 7 -10 3 -15z m106 5 c0 -8 -4 -12 -10 -9 -5 3 -10 10 -10 16 0 5 5
9 10 9 6 0 10 -7 10 -16z m-80 -22 c0 -14 -69 -76 -77 -69 -3 4 9 23 27 42 33
34 50 43 50 27z m27 -38 c-9 -9 -28 6 -21 18 4 6 10 6 17 -1 6 -6 8 -13 4 -17z
m26 -86 c-7 -13 -73 52 -73 71 0 9 15 1 40 -24 21 -21 37 -42 33 -47z m145 4
c11 2 17 13 17 28 0 22 -4 25 -33 23 -21 -1 -32 3 -29 10 2 7 19 12 38 12 27
0 35 -5 43 -27 8 -22 6 -32 -9 -48 -26 -29 -44 -25 -92 22 -57 56 -55 72 2 19
26 -24 54 -41 63 -39z m-226 33 c0 -5 -5 -11 -11 -13 -6 -2 -11 4 -11 13 0 9
5 15 11 13 6 -2 11 -8 11 -13z m112 -6 c-3 -5 -10 -7 -15 -3 -5 3 -7 10 -3 15
3 5 10 7 15 3 5 -3 7 -10 3 -15z m113 -5 c-9 -9 -28 6 -21 18 4 6 10 6 17 -1
6 -6 8 -13 4 -17z m-332 6 c-3 -5 -10 -10 -16 -10 -5 0 -9 5 -9 10 0 6 7 10
16 10 8 0 12 -4 9 -10z m135 -18 c0 -5 -14 -21 -30 -37 -39 -37 -37 -71 3 -68
15 1 27 -3 27 -8 0 -16 -30 -22 -56 -11 -34 16 -31 53 7 97 30 34 49 44 49 27z
m81 -37 c-52 -48 -64 -44 -16 5 21 21 42 37 46 34 5 -2 -9 -20 -30 -39z m-51
7 c0 -13 -12 -22 -22 -16 -10 6 -1 24 13 24 5 0 9 -4 9 -8z m-55 -52 c3 -5 1
-10 -4 -10 -6 0 -11 5 -11 10 0 6 2 10 4 10 3 0 8 -4 11 -10z m105 0 c0 -5 -5
-10 -11 -10 -5 0 -7 5 -4 10 3 6 8 10 11 10 2 0 4 -4 4 -10z m-50 -65 c0 -8
-4 -15 -10 -15 -5 0 -10 7 -10 15 0 8 5 15 10 15 6 0 10 -7 10 -15z m5 -35 c4
-6 -5 -10 -20 -10 -15 0 -24 4 -20 10 3 6 12 10 20 10 8 0 17 -4 20 -10z m-25
-55 c0 -14 -4 -25 -10 -25 -11 0 -14 33 -3 43 11 11 13 8 13 -18z m30 16 c0
-5 3 -16 6 -25 3 -9 2 -16 -4 -16 -5 0 -12 11 -14 25 -3 14 -1 25 3 25 5 0 9
-4 9 -9z"/>
</g>
</svg>
