<?xml version="1.0" standalone="no"?>
<!DOCTYPE svg PUBLIC "-//W3C//DTD SVG 20010904//EN"
 "http://www.w3.org/TR/2001/REC-SVG-20010904/DTD/svg10.dtd">
<svg version="1.0" xmlns="http://www.w3.org/2000/svg"
 width="300.000000pt" height="225.000000pt" viewBox="0 0 300.000000 225.000000"
 preserveAspectRatio="xMidYMid meet">
<metadata>
Created by potrace 1.10, written by Peter Selinger 2001-2011
</metadata>
<g transform="translate(0.000000,225.000000) scale(0.100000,-0.100000)"
fill="#000000" stroke="none">
<path d="M765 2116 c-145 -28 -370 -94 -452 -133 -53 -25 -69 -48 -58 -84 9
-27 30 -19 30 12 0 21 10 27 80 51 126 42 401 106 507 118 204 23 398 -37 398
-123 0 -35 -61 -100 -164 -172 l-91 -65 -5 112 c-5 120 -10 138 -40 138 -20 0
-35 -26 -20 -35 6 -4 10 -61 10 -128 l0 -122 -78 -43 c-42 -23 -115 -60 -161
-82 l-84 -41 6 76 c5 64 3 77 -10 82 -28 11 -43 -26 -43 -102 l0 -71 -177 -57
c-98 -31 -199 -62 -226 -68 -45 -11 -57 -21 -39 -33 9 -5 253 56 372 93 35 11
66 18 68 16 2 -2 8 -38 13 -81 18 -139 49 -266 67 -272 16 -5 15 25 -3 195 -8
76 -16 149 -17 161 -3 21 8 28 102 66 58 23 123 54 145 67 22 14 46 29 53 33
10 6 12 -61 11 -326 -2 -369 3 -407 51 -451 58 -52 130 -36 514 112 129 50
256 96 282 103 42 12 65 31 51 44 -15 15 -243 -44 -417 -109 -187 -69 -211
-77 -284 -96 -41 -11 -83 -17 -94 -14 -28 7 -40 41 -52 141 -11 96 -13 497 -4
579 l7 52 88 56 c203 129 264 216 210 298 -22 34 -77 73 -134 94 -58 22 -317
27 -412 9z"/>
<path d="M2330 802 l-65 -18 -3 -88 c-2 -54 1 -93 8 -100 8 -8 12 -5 16 9 4
17 13 20 47 20 23 0 54 3 70 8 24 7 27 5 27 -18 0 -15 6 -25 14 -25 16 0 25
100 16 180 -5 42 -7 45 -35 47 -16 1 -59 -6 -95 -15z m100 -32 c0 -24 -6 -27
-82 -33 -51 -5 -58 -3 -58 13 0 14 12 20 58 28 83 14 82 14 82 -8z m-2 -74 c8
-9 -63 -35 -100 -38 -29 -3 -33 0 -36 23 -3 25 -3 26 64 23 37 -2 69 -6 72 -8z"/>
<path d="M1664 756 c-3 -15 -3 -41 0 -59 l6 -32 -62 -17 c-97 -25 -123 -37
-111 -49 8 -8 43 -4 121 15 61 15 132 28 159 30 48 4 48 4 58 -32 15 -52 29
-46 33 12 4 56 -7 68 -53 61 -112 -16 -125 -16 -125 -1 0 15 18 20 105 31 73
9 85 14 85 36 0 10 -4 19 -9 19 -8 0 -85 -15 -162 -32 -7 -2 -13 6 -14 16 0
30 -23 31 -31 2z"/>
<path d="M2044 756 c-3 -8 -4 -40 -2 -71 3 -55 3 -56 -29 -67 -39 -14 -46 -42
-9 -32 l25 6 -39 -103 c-22 -56 -44 -107 -50 -113 -15 -15 -12 -26 8 -26 23 0
38 26 73 124 l28 81 1 -127 c0 -82 4 -129 11 -134 23 -14 30 24 27 142 l-3
122 28 -24 c34 -28 50 -31 45 -6 -2 9 -20 26 -41 37 -46 25 -47 47 -2 64 47
16 49 44 3 30 -48 -13 -48 -14 -48 45 0 54 -14 82 -26 52z"/>
<path d="M2673 704 c-3 -9 3 -23 16 -35 43 -40 65 -100 66 -174 0 -70 -8 -92
-68 -178 -10 -14 -9 -19 3 -27 21 -13 86 51 116 115 30 62 31 126 4 199 -32
84 -118 148 -137 100z"/>
<path d="M1277 608 c-79 -106 -101 -217 -58 -293 31 -55 87 -97 126 -93 47 5
42 30 -13 66 -92 59 -100 136 -26 257 38 64 41 80 18 89 -22 8 -20 9 -47 -26z"/>
<path d="M1663 571 c-3 -12 -21 -25 -46 -33 -54 -17 -62 -39 -10 -27 54 12 60
11 66 -11 8 -30 32 -34 86 -16 28 9 59 16 70 16 14 0 21 6 21 20 0 25 -17 25
-86 3 -30 -9 -57 -13 -61 -9 -11 10 14 23 59 30 25 4 38 11 35 19 -2 6 -8 11
-13 11 -5 -1 -28 -5 -51 -9 -36 -6 -43 -4 -43 9 0 23 -21 20 -27 -3z"/>
<path d="M2440 564 c-14 -2 -63 -9 -110 -14 -113 -15 -130 -18 -130 -31 0 -7
19 -10 50 -7 28 1 50 1 50 -1 0 -3 -7 -13 -17 -23 -19 -22 -10 -36 12 -18 10
8 15 9 15 1 0 -6 9 -11 20 -11 27 0 25 -12 -5 -40 -25 -24 -33 -50 -15 -50 6
0 23 18 38 40 15 21 35 39 44 40 16 0 16 -4 -3 -47 -11 -26 -25 -53 -30 -59
-6 -8 -6 -14 -1 -18 14 -8 31 15 52 71 15 39 23 49 45 51 l28 4 -6 -77 c-3
-43 -12 -87 -21 -100 -21 -31 -20 -35 5 -35 30 0 51 59 52 152 0 43 -3 81 -7
85 -4 5 -48 10 -96 13 -119 7 -109 26 18 36 78 6 92 10 90 23 -3 16 -32 22
-78 15z"/>
<path d="M1818 455 c-3 -3 -45 -9 -93 -13 -49 -4 -90 -12 -92 -17 -2 -7 12 -9
37 -7 31 3 40 1 40 -11 0 -11 -13 -16 -44 -19 -37 -2 -46 0 -50 16 -9 36 -31
11 -27 -32 2 -39 1 -42 -23 -42 -25 0 -48 -19 -24 -21 7 0 78 -1 158 -1 l145
1 8 61 c5 33 6 67 3 75 -5 15 -27 20 -38 10z m12 -45 c0 -17 -7 -20 -44 -20
-29 0 -46 5 -49 14 -5 11 4 16 36 19 23 2 45 4 50 5 4 1 7 -7 7 -18z m-117
-55 c8 -18 2 -21 -50 -24 -33 -2 -43 1 -43 13 0 13 18 20 71 25 9 0 19 -6 22
-14z m107 0 c0 -11 -12 -15 -45 -15 -35 0 -43 3 -39 15 4 10 20 15 45 15 28 0
39 -4 39 -15z"/>
<path d="M1814 264 c-7 -3 -56 -8 -110 -12 -64 -5 -99 -11 -102 -19 -2 -9 6
-13 25 -13 23 0 28 -5 29 -25 2 -21 -3 -25 -26 -25 -24 0 -29 5 -32 27 -4 38
-28 42 -28 5 0 -22 -6 -31 -22 -36 -55 -14 9 -25 173 -31 147 -5 177 -4 182 8
9 23 -9 40 -37 35 -25 -5 -25 -4 -23 40 2 43 -6 55 -29 46z m-15 -43 c22 -14
4 -51 -25 -51 -27 0 -27 0 -14 34 10 28 17 31 39 17z m-63 -17 c-3 -9 -6 -20
-6 -25 0 -5 -11 -9 -24 -9 -17 0 -25 7 -28 25 -5 23 -2 25 29 25 28 0 34 -3
29 -16z"/>
</g>
</svg>
